<svg data-v-0dd9719b="" version="1.0" xmlns="http://www.w3.org/2000/svg" xmlns:xlink="http://www.w3.org/1999/xlink" width="100%" height="100%" viewBox="0 0 340.000000 250.000000" preserveAspectRatio="xMidYMid meet" color-interpolation-filters="sRGB" style="margin: auto;"> <rect data-v-0dd9719b="" x="0" y="0" width="100%" height="100%" fill="#fff" fill-opacity="1" class="background"></rect> <rect data-v-0dd9719b="" x="0" y="0" width="100%" height="100%" fill="url(#watermark)" fill-opacity="1" class="watermarklayer"></rect> <g data-v-0dd9719b="" fill="#333" class="icon-text-wrapper icon-svg-group iconsvg" transform="translate(48.70000457763672,94.99069595336914)"><g class="iconsvg-imagesvg" transform="translate(0,0)"><g><rect fill="#333" fill-opacity="0" stroke-width="2" x="0" y="0" width="60" height="60.01860576778802" class="image-rect"></rect> <svg x="0" y="0" width="60" height="60.01860576778802" filtersec="colorsb1242571657" class="image-svg-svg primary" style="overflow: visible;"><svg xmlns="http://www.w3.org/2000/svg" viewBox="-0.0004231940256431699 -0.00042338765342719853 96.32041931152344 96.35041809082031"><path d="M46.51 80.55a32.43 32.43 0 0 1 0-64.78V0h-.38a1.79 1.79 0 0 0-1.77 1.53l-.26 1.82a4.71 4.71 0 0 1-3.75 3.94 41.1 41.1 0 0 0-5.86 1.57 4.7 4.7 0 0 1-5.22-1.54l-1.13-1.44a1.78 1.78 0 0 0-2.3-.44l-3.52 2a1.78 1.78 0 0 0-.76 2.21l.68 1.71A4.67 4.67 0 0 1 21 16.67 43.43 43.43 0 0 0 16.67 21a4.67 4.67 0 0 1-5.28 1.28l-1.71-.68a1.78 1.78 0 0 0-2.21.76l-2 3.52a1.78 1.78 0 0 0 .44 2.3l1.44 1.13a4.7 4.7 0 0 1 1.54 5.22 41.1 41.1 0 0 0-1.57 5.86 4.71 4.71 0 0 1-3.97 3.71l-1.82.26A1.79 1.79 0 0 0 0 46.13v4.06A1.79 1.79 0 0 0 1.53 52l1.82.26A4.69 4.69 0 0 1 7.29 56a41.45 41.45 0 0 0 1.57 5.86 4.7 4.7 0 0 1-1.54 5.22l-1.44 1.1a1.78 1.78 0 0 0-.44 2.3l2 3.51a1.77 1.77 0 0 0 2.21.77l1.71-.68a4.68 4.68 0 0 1 5.28 1.27 42.48 42.48 0 0 0 4.36 4.3 4.67 4.67 0 0 1 1.28 5.28l-.68 1.71a1.78 1.78 0 0 0 .76 2.21l3.52 2a1.78 1.78 0 0 0 2.3-.44L29.27 89a4.7 4.7 0 0 1 5.22-1.54A41.1 41.1 0 0 0 40.35 89a4.69 4.69 0 0 1 3.75 4l.26 1.81a1.8 1.8 0 0 0 1.77 1.54h.38z" fill="#0087ff"></path><path d="M94.78 44.36L93 44.1a4.69 4.69 0 0 1-4-3.75 41.1 41.1 0 0 0-1.57-5.86A4.69 4.69 0 0 1 89 29.27l1.44-1.13a1.79 1.79 0 0 0 .44-2.3l-2-3.52a1.78 1.78 0 0 0-2.21-.76l-1.71.68A4.68 4.68 0 0 1 79.65 21a42.48 42.48 0 0 0-4.3-4.29 4.68 4.68 0 0 1-1.27-5.28l.68-1.71A1.78 1.78 0 0 0 74 7.47l-3.52-2a1.78 1.78 0 0 0-2.3.44l-1.13 1.41a4.7 4.7 0 0 1-5.22 1.54A41.45 41.45 0 0 0 56 7.29a4.69 4.69 0 0 1-3.75-3.94L52 1.53A1.79 1.79 0 0 0 50.19 0h-.38v15.77a32.43 32.43 0 0 1 0 64.78v15.77h.38A1.8 1.8 0 0 0 52 94.78l.22-1.78A4.66 4.66 0 0 1 56 89a41.45 41.45 0 0 0 5.86-1.57A4.69 4.69 0 0 1 67.05 89l1.13 1.44a1.79 1.79 0 0 0 2.3.44l3.52-2a1.78 1.78 0 0 0 .76-2.21l-.68-1.71a4.68 4.68 0 0 1 1.27-5.28 41.56 41.56 0 0 0 4.3-4.3 4.68 4.68 0 0 1 5.28-1.27l1.71.68a1.78 1.78 0 0 0 2.21-.79l2-3.51a1.78 1.78 0 0 0-.44-2.3L89 67.05a4.7 4.7 0 0 1-1.54-5.22A41.45 41.45 0 0 0 89 56a4.66 4.66 0 0 1 4-3.78l1.78-.22a1.8 1.8 0 0 0 1.54-1.77v-4.1a1.8 1.8 0 0 0-1.54-1.77z" fill="#ff006f"></path><path d="M49.81 21.19v13.93h8a3.06 3.06 0 1 1 0 1.83h-8v10.3h12.68a3.05 3.05 0 1 1 0 1.82H49.81v10.3h8a3.06 3.06 0 1 1 0 1.82h-8v13.94a27 27 0 0 0 0-53.94zM21.13 48.16a27 27 0 0 0 25.38 27V21.19a27 27 0 0 0-25.38 26.97zm22.18-13h-4.85a3.06 3.06 0 1 0 0 1.83h4.85v10.3h-9.49a3.05 3.05 0 1 0 0 1.82h9.49v10.3h-4.85a3.06 3.06 0 1 0 0 1.83h4.85v10.24a23.82 23.82 0 0 1 0-46.64z" fill="#2a3294"></path></svg></svg> <!----></g></g> <g transform="translate(67,5.993053436279297)"><g data-gra="path-name" fill-rule="" class="tp-name iconsvg-namesvg" transform="translate(0,0)"><g transform="scale(1)"><g><path d="M10.48-26.71L33.37-26.71 33.37-17.03 31.1-17.03 32.98-12.74 26.93-12.74 24.59-18.22 27.54-18.22 27.54-21.24 16.34-21.24 16.34-18.22 19.26-18.22 16.92-12.74 10.91-12.74 12.74-17.03 10.48-17.03 10.48-26.71ZM19.01-13L24.88-13 24.88-10.48 33.37-10.48 33.37-5 24.88-5 24.88 5.76 19.01 5.76 19.01-5 10.48-5 10.48-10.48 19.01-10.48 19.01-13ZM2.74-10.44L8.57-10.44 8.57 5.76 2.74 5.76 2.74-10.44ZM12.06-3.56L17.93-3.56 16.45 5.76 10.62 5.76 12.06-3.56ZM25.92-3.56L31.75-3.56 33.19 5.76 27.4 5.76 25.92-3.56ZM8.57-26.57L8.57-20.7 2.74-20.7 2.74-26.57 8.57-26.57ZM8.57-18.5L8.57-12.71 2.74-12.71 2.74-18.5 8.57-18.5ZM39.6-27.11L45.47-27.11 45.47-18.68 47.59-18.68 47.59-13.25 45.47-13.25 45.47 0.4 47.59 0.4 47.59 5.83 37.44 5.83 37.44 0.4 39.6 0.4 39.6-13.25 37.44-13.25 37.44-18.68 39.6-18.68 39.6-27.11ZM50.4-27.11L56.27-27.11 56.27 5.83 48.92 5.83 48.92 0.4 50.4 0.4 50.4-27.11ZM57.53-27.11L63.4-27.11 63.4 5.83 57.53 5.83 57.53-27.11ZM64.76-27.11L70.6-27.11 70.6 5.83 64.76 5.83 64.76-27.11ZM95.69-19.62L106.42-19.62 106.42-14.18 102.17-14.18 102.17 0.32 106.27 0.32 106.27 5.76 96.3 5.76 96.3-14.18 94.86-14.18 91.8 5.76 85.82 5.76 88.85-14.18 85.39-14.18 85.39-19.62 89.68-19.62 90.83-27.14 96.84-27.14 95.69-19.62ZM78.3-27.25L84.1-27.25 81.25-13.25 82.48-13.25 82.48 5.83 76.61 5.83 76.61-11.99 73.62-11.99 73.62-17.5 76.28-17.5 78.3-27.25ZM104.47-27.14L105.23-20.92 99.22-20.92 98.46-27.14 104.47-27.14ZM122.94-26.53L142.56-26.53 142.56-21.06 132.73-21.06 131-15.34 142.2-15.34 142.2 5.72 124.49 5.72 124.49-7.74 122.08-7.74 122.08-13.21 124.2-13.21 126.61-21.06 122.94-21.06 122.94-26.53ZM118.37-21.6L121.07-21.6 121.07-16.13 118.37-16.13 118.37-9.32 121.07-9.32 121.07-3.85 118.37-3.85 118.37 5.72 109.58 5.72 109.58 0.25 112.5 0.25 112.5-3.85 109.58-3.85 109.58-9.32 112.5-9.32 112.5-16.13 109.58-16.13 109.58-21.6 112.5-21.6 112.5-27 118.37-27 118.37-21.6ZM130.36-9.83L130.36 0.25 136.33 0.25 136.33-9.83 130.36-9.83ZM163.84-27.07L178.34-27.07 178.34 3.17 169.7 3.17 169.7 5.58 163.84 5.58 163.84-27.07ZM157.75-25.02L162.5-25.02 162.5-19.55 157.39-19.55 157.21-16.45 162.5-16.45 162.5-10.94 156.85-10.94 156.67-7.85 162.5-7.85 162.5-2.34 156.31-2.34 155.84 5.47 146.2 5.47 146.2 0.04 150.23 0.04 150.37-2.34 146.2-2.34 146.2-7.85 150.73-7.85 150.91-10.94 146.2-10.94 146.2-16.45 151.27-16.45 151.45-19.55 146.2-19.55 146.2-25.02 151.81-25.02 151.96-27.18 157.9-27.18 157.75-25.02ZM169.7-21.64L169.7-14.65 172.48-14.65 172.48-21.64 169.7-21.64ZM169.7-9.22L169.7-2.27 172.48-2.27 172.48-9.22 169.7-9.22Z" transform="translate(-2.740000009536743, 27.25)"></path></g> <!----> <!----> <!----> <!----> <!----> <!----> <!----></g></g> <g data-gra="path-slogan" fill-rule="" class="tp-slogan iconsvg-slogansvg" fill="#333" transform="translate(11.509170532226562,39.08000183105469)"><!----> <!----> <g transform="scale(1, 1)"><g transform="scale(1)"><path d="M7.17-6.09L7.17-6.09L6.09-6.09Q6-7.73 3.94-7.83L3.94-7.83Q2.02-7.78 2.02-6.33L2.02-6.33Q2.02-5.39 3.05-5.25L3.05-5.25L5.48-4.69Q7.41-4.22 7.41-2.34L7.41-2.34Q7.36 0.05 4.03 0.14L4.03 0.14Q2.20 0.14 1.45-0.61L1.45-0.61Q0.52-1.31 0.56-2.77L0.56-2.77L1.69-2.77Q1.73-0.80 4.03-0.75L4.03-0.75Q6.28-0.80 6.33-2.20L6.33-2.20Q6.52-3.38 4.45-3.75L4.45-3.75L2.67-4.13Q0.84-4.64 0.84-6.19L0.84-6.19Q0.98-8.72 3.84-8.81L3.84-8.81Q7.08-8.81 7.17-6.09ZM10.03-5.06L14.53-5.06L14.53-8.58L15.70-8.58L15.70 0L14.53 0L14.53-3.98L10.03-3.98L10.03 0L8.86 0L8.86-8.58L10.03-8.58L10.03-5.06ZM18.80-1.03L23.95-1.03L23.95 0L17.63 0L17.63-8.58L23.86-8.58L23.86-7.59L18.80-7.59L18.80-4.92L23.48-4.92L23.48-3.89L18.80-3.89L18.80-1.03ZM26.86-8.58L31.17-1.64L31.17-8.58L32.30-8.58L32.30 0L30.98 0L26.63-6.94L26.58-6.94L26.58 0L25.45 0L25.45-8.58L26.86-8.58ZM34.92-1.03L40.22-1.03L40.22 0L33.47 0L33.47-0.94L38.72-7.59L33.84-7.59L33.84-8.58L40.22-8.58L40.22-7.59L34.92-1.03ZM42.52-5.06L47.02-5.06L47.02-8.58L48.19-8.58L48.19 0L47.02 0L47.02-3.98L42.52-3.98L42.52 0L41.34 0L41.34-8.58L42.52-8.58L42.52-5.06ZM51.28-1.03L56.44-1.03L56.44 0L50.11 0L50.11-8.58L56.34-8.58L56.34-7.59L51.28-7.59L51.28-4.92L55.97-4.92L55.97-3.89L51.28-3.89L51.28-1.03ZM59.34-8.58L63.66-1.64L63.66-8.58L64.78-8.58L64.78 0L63.47 0L59.11-6.94L59.06-6.94L59.06 0L57.94 0L57.94-8.58L59.34-8.58ZM76.83-8.58L73.59-3.47L73.59 0L72.42 0L72.42-3.47L69.19-8.58L70.55-8.58L72.98-4.45L75.47-8.58L76.83-8.58ZM84.66-4.27L84.66-4.27Q84.47-7.64 81.66-7.83L81.66-7.83Q78.80-7.69 78.66-4.27L78.66-4.27Q78.80-0.94 81.66-0.80L81.66-0.80Q84.47-0.98 84.66-4.27ZM85.83-4.27L85.83-4.27Q85.55 0 81.66 0.14L81.66 0.14Q77.72 0 77.44-4.27L77.44-4.27Q77.67-8.72 81.66-8.81L81.66-8.81Q85.55-8.67 85.83-4.27ZM92.86-3.19L92.86-8.58L94.03-8.58L94.03-3.05Q93.89 0.05 90.52 0.14L90.52 0.14Q87.38 0.05 87.23-2.86L87.23-2.86L87.23-8.58L88.41-8.58L88.41-3.19Q88.45-0.84 90.56-0.80L90.56-0.80Q92.86-0.84 92.86-3.19L92.86-3.19ZM98.02-7.59L95.11-7.59L95.11-8.58L102.05-8.58L102.05-7.59L99.14-7.59L99.14 0L98.02 0L98.02-7.59ZM108.75-3.19L108.75-8.58L109.92-8.58L109.92-3.05Q109.78 0.05 106.41 0.14L106.41 0.14Q103.27 0.05 103.13-2.86L103.13-2.86L103.13-8.58L104.30-8.58L104.30-3.19Q104.34-0.84 106.45-0.80L106.45-0.80Q108.75-0.84 108.75-3.19L108.75-3.19ZM118.50-4.27L118.50-4.27Q118.31-7.64 115.50-7.83L115.50-7.83Q112.64-7.69 112.50-4.27L112.50-4.27Q112.64-0.94 115.50-0.80L115.50-0.80Q118.31-0.98 118.50-4.27ZM119.67-4.27L119.67-4.27Q119.39 0 115.50 0.14L115.50 0.14Q111.56 0 111.28-4.27L111.28-4.27Q111.52-8.72 115.50-8.81L115.50-8.81Q119.39-8.67 119.67-4.27ZM124.27-7.64L122.20-7.64L122.20-4.97L124.27-4.97Q126.09-4.92 126.05-6.38L126.05-6.38Q126.05-7.64 124.27-7.64L124.27-7.64ZM124.73 0L121.03 0L121.03-8.58L124.83-8.58Q127.13-8.48 127.22-6.42L127.22-6.42Q127.22-5.16 126.09-4.64L126.09-4.64Q127.69-4.08 127.69-2.53L127.69-2.53Q127.55-0.09 124.73 0L124.73 0ZM124.45-3.98L122.20-3.98L122.20-0.98L124.69-0.98Q126.47-1.03 126.52-2.53L126.52-2.53Q126.52-3.98 124.45-3.98L124.45-3.98ZM134.67 0L133.83-2.48L130.36-2.48L129.47 0L128.30 0L131.53-8.58L132.84-8.58L135.94 0L134.67 0ZM132.09-7.31L130.73-3.52L133.41-3.52L132.14-7.31L132.09-7.31ZM138.38-8.58L142.69-1.64L142.69-8.58L143.81-8.58L143.81 0L142.50 0L138.14-6.94L138.09-6.94L138.09 0L136.97 0L136.97-8.58L138.38-8.58ZM152.02-3.61L149.39-3.61L149.39-4.59L153.14-4.59L153.14 0L152.39 0L152.11-1.08Q151.13 0.09 149.30 0.14L149.30 0.14Q147.56 0.14 146.63-0.75L146.63-0.75Q145.22-2.06 145.27-4.36L145.27-4.36Q145.59-8.63 149.34-8.81L149.34-8.81Q152.53-8.63 153-6L153-6L151.88-6Q151.41-7.78 149.30-7.83L149.30-7.83Q146.63-7.64 146.48-4.31L146.48-4.31Q146.48-0.75 149.34-0.75L149.34-0.75Q150.38-0.75 151.13-1.31L151.13-1.31Q152.06-2.06 152.02-3.61L152.02-3.61Z" transform="translate(-0.5602678571428572, 8.8125)"></path></g></g></g></g></g><defs v-gra="od"></defs></svg>